# xmcd
#
# Track frame offsets: 
#        150
#        19469
#        42611
#        63018
#        80916
#        102606
#        108829
#        132211
#        155553
#        162213
#        182919
#        199192
#        218800
#
# Disc length: 3259 seconds
#
# Revision: 0
# Processed by: cddbd v1.5.2PL0 Copyright (c) Steve Scherf et al.
# Submitted via: ExactAudioCopy v0.99pb5
#
DISCID=bc0cb90d
DTITLE=Freestyle - Freestyle
DYEAR=1998
DGENRE=Pop
TTITLE0=Goodluv
TTITLE1=Not That Easy
TTITLE2=Wanna Be the One
TTITLE3=Lover
TTITLE4=Before I Let You Go
TTITLE5=I Keep on Callin' [Interlude]
TTITLE6=Let's Get It On
TTITLE7=I'm Gonna Love You
TTITLE8=It's Not Time [Interlude]
TTITLE9=So Slow
TTITLE10=Treat You So Right
TTITLE11=Get with Me
TTITLE12=Bakit Iniwan Na
EXTD=
EXTT0=
EXTT1=
EXTT2=
EXTT3=
EXTT4=
EXTT5=
EXTT6=
EXTT7=
EXTT8=
EXTT9=
EXTT10=
EXTT11=
EXTT12=
PLAYORDER=
